<svg id="my-svg" width="100%" xmlns="http://www.w3.org/2000/svg" xmlns:xlink="http://www.w3.org/1999/xlink" class="flowchart" style="max-width: 1484.08px; background-color: white;" viewBox="0 0 1484.08203125 1180.2059326171875" role="graphics-document document" aria-roledescription="flowchart-v2"><style>#my-svg{font-size:13px;fill:#e2e8f0;}@keyframes edge-animation-frame{from{stroke-dashoffset:0;}}@keyframes dash{to{stroke-dashoffset:0;}}#my-svg .edge-animation-slow{stroke-dasharray:9,5!important;stroke-dashoffset:900;animation:dash 50s linear infinite;stroke-linecap:round;}#my-svg .edge-animation-fast{stroke-dasharray:9,5!important;stroke-dashoffset:900;animation:dash 20s linear infinite;stroke-linecap:round;}#my-svg .error-icon{fill:#1e293b;}#my-svg .error-text{fill:#e1d6c4;stroke:#e1d6c4;}#my-svg .edge-thickness-normal{stroke-width:1px;}#my-svg .edge-thickness-thick{stroke-width:3.5px;}#my-svg .edge-pattern-solid{stroke-dasharray:0;}#my-svg .edge-thickness-invisible{stroke-width:0;fill:none;}#my-svg .edge-pattern-dashed{stroke-dasharray:3;}#my-svg .edge-pattern-dotted{stroke-dasharray:2;}#my-svg .marker{fill:#38bdf8;stroke:#38bdf8;}#my-svg .marker.cross{stroke:#38bdf8;}#my-svg svg{font-size:13px;}#my-svg p{margin:0;}#my-svg .label{color:#e2e8f0;}#my-svg .cluster-label text{fill:#1e1b4b;}#my-svg .cluster-label span{color:#1e1b4b;}#my-svg .cluster-label span p{background-color:transparent;}#my-svg .label text,#my-svg span{fill:#e2e8f0;color:#e2e8f0;}#my-svg .node rect,#my-svg .node circle,#my-svg .node ellipse,#my-svg .node polygon,#my-svg .node path{fill:#0f172a;stroke:#0063e5;stroke-width:1px;}#my-svg .rough-node .label text,#my-svg .node .label text,#my-svg .image-shape .label,#my-svg .icon-shape .label{text-anchor:middle;}#my-svg .node .katex path{fill:#000;stroke:#000;stroke-width:1px;}#my-svg .rough-node .label,#my-svg .node .label,#my-svg .image-shape .label,#my-svg .icon-shape .label{text-align:center;}#my-svg .node.clickable{cursor:pointer;}#my-svg .root .anchor path{fill:#38bdf8!important;stroke-width:0;stroke:#38bdf8;}#my-svg .arrowheadPath{fill:#0b0b0b;}#my-svg .edgePath .path{stroke:#38bdf8;stroke-width:1px;}#my-svg .flowchart-link{stroke:#38bdf8;fill:none;}#my-svg .edgeLabel{background-color:#e8f0ff;text-align:center;}#my-svg .edgeLabel p{background-color:#e8f0ff;}#my-svg .edgeLabel rect{opacity:0.5;background-color:#e8f0ff;fill:#e8f0ff;}#my-svg .labelBkg{background-color:rgba(232, 240, 255, 0.5);}#my-svg .cluster rect{fill:#f0f7ff;stroke:#bfdbfe;stroke-width:1px;}#my-svg .cluster text{fill:#1e1b4b;}#my-svg .cluster span{color:#1e1b4b;}#my-svg div.mermaidTooltip{position:absolute;text-align:center;max-width:200px;padding:2px;font-size:12px;background:#1e293b;border:1px solid hsl(217.2413793103, 0%, 7.4509803922%);border-radius:2px;pointer-events:none;z-index:100;}#my-svg .flowchartTitleText{text-anchor:middle;font-size:18px;fill:#e2e8f0;}#my-svg rect.text{fill:none;stroke-width:0;}#my-svg .icon-shape,#my-svg .image-shape{background-color:#e8f0ff;text-align:center;}#my-svg .icon-shape p,#my-svg .image-shape p{background-color:#e8f0ff;padding:2px;}#my-svg .icon-shape .label rect,#my-svg .image-shape .label rect{opacity:0.5;background-color:#e8f0ff;fill:#e8f0ff;}#my-svg .label-icon{display:inline-block;height:1em;overflow:visible;vertical-align:-0.125em;}#my-svg .node .label-icon path{fill:currentColor;stroke:revert;stroke-width:revert;}#my-svg .node .neo-node{stroke:#0063e5;}#my-svg [data-look="neo"].node rect,#my-svg [data-look="neo"].cluster rect,#my-svg [data-look="neo"].node polygon{stroke:url(#my-svg-gradient);filter:drop-shadow( 1px 2px 2px rgba(185,185,185,1));}#my-svg [data-look="neo"].swimlane.cluster rect{filter:none;}#my-svg [data-look="neo"].node path{stroke:url(#my-svg-gradient);stroke-width:1px;}#my-svg [data-look="neo"].node .outer-path{filter:drop-shadow( 1px 2px 2px rgba(185,185,185,1));}#my-svg [data-look="neo"].node .neo-line path{stroke:#0063e5;filter:none;}#my-svg [data-look="neo"].node circle{stroke:url(#my-svg-gradient);filter:drop-shadow( 1px 2px 2px rgba(185,185,185,1));}#my-svg [data-look="neo"].node circle .state-start{fill:#000000;}#my-svg [data-look="neo"].icon-shape .icon{fill:url(#my-svg-gradient);filter:drop-shadow( 1px 2px 2px rgba(185,185,185,1));}#my-svg [data-look="neo"].icon-shape .icon-neo path{stroke:url(#my-svg-gradient);filter:drop-shadow( 1px 2px 2px rgba(185,185,185,1));}#my-svg :root{--mermaid-font-family:"trebuchet ms",verdana,arial,sans-serif;}</style><g><marker id="my-svg_flowchart-v2-pointEnd" class="marker flowchart-v2" viewBox="0 0 10 10" refX="5" refY="5" markerUnits="userSpaceOnUse" markerWidth="8" markerHeight="8" orient="auto"><path d="M 0 0 L 10 5 L 0 10 z" class="arrowMarkerPath" style="stroke-width: 1; stroke-dasharray: 1, 0;"/></marker><marker id="my-svg_flowchart-v2-pointStart" class="marker flowchart-v2" viewBox="0 0 10 10" refX="4.5" refY="5" markerUnits="userSpaceOnUse" markerWidth="8" markerHeight="8" orient="auto"><path d="M 0 5 L 10 10 L 10 0 z" class="arrowMarkerPath" style="stroke-width: 1; stroke-dasharray: 1, 0;"/></marker><marker id="my-svg_flowchart-v2-pointEnd-margin" class="marker flowchart-v2" viewBox="0 0 11.5 14" refX="11.5" refY="7" markerUnits="userSpaceOnUse" markerWidth="10.5" markerHeight="14" orient="auto"><path d="M 0 0 L 11.5 7 L 0 14 z" class="arrowMarkerPath" style="stroke-width: 0; stroke-dasharray: 1, 0;"/></marker><marker id="my-svg_flowchart-v2-pointStart-margin" class="marker flowchart-v2" viewBox="0 0 11.5 14" refX="1" refY="7" markerUnits="userSpaceOnUse" markerWidth="11.5" markerHeight="14" orient="auto"><polygon points="0,7 11.5,14 11.5,0" class="arrowMarkerPath" style="stroke-width: 0; stroke-dasharray: 1, 0;"/></marker><marker id="my-svg_flowchart-v2-circleEnd" class="marker flowchart-v2" viewBox="0 0 10 10" refX="11" refY="5" markerUnits="userSpaceOnUse" markerWidth="11" markerHeight="11" orient="auto"><circle cx="5" cy="5" r="5" class="arrowMarkerPath" style="stroke-width: 1; stroke-dasharray: 1, 0;"/></marker><marker id="my-svg_flowchart-v2-circleStart" class="marker flowchart-v2" viewBox="0 0 10 10" refX="-1" refY="5" markerUnits="userSpaceOnUse" markerWidth="11" markerHeight="11" orient="auto"><circle cx="5" cy="5" r="5" class="arrowMarkerPath" style="stroke-width: 1; stroke-dasharray: 1, 0;"/></marker><marker id="my-svg_flowchart-v2-circleEnd-margin" class="marker flowchart-v2" viewBox="0 0 10 10" refY="5" refX="12.25" markerUnits="userSpaceOnUse" markerWidth="14" markerHeight="14" orient="auto"><circle cx="5" cy="5" r="5" class="arrowMarkerPath" style="stroke-width: 0; stroke-dasharray: 1, 0;"/></marker><marker id="my-svg_flowchart-v2-circleStart-margin" class="marker flowchart-v2" viewBox="0 0 10 10" refX="-2" refY="5" markerUnits="userSpaceOnUse" markerWidth="14" markerHeight="14" orient="auto"><circle cx="5" cy="5" r="5" class="arrowMarkerPath" style="stroke-width: 0; stroke-dasharray: 1, 0;"/></marker><marker id="my-svg_flowchart-v2-crossEnd" class="marker cross flowchart-v2" viewBox="0 0 11 11" refX="12" refY="5.2" markerUnits="userSpaceOnUse" markerWidth="11" markerHeight="11" orient="auto"><path d="M 1,1 l 9,9 M 10,1 l -9,9" class="arrowMarkerPath" style="stroke-width: 2; stroke-dasharray: 1, 0;"/></marker><marker id="my-svg_flowchart-v2-crossStart" class="marker cross flowchart-v2" viewBox="0 0 11 11" refX="-1" refY="5.2" markerUnits="userSpaceOnUse" markerWidth="11" markerHeight="11" orient="auto"><path d="M 1,1 l 9,9 M 10,1 l -9,9" class="arrowMarkerPath" style="stroke-width: 2; stroke-dasharray: 1, 0;"/></marker><marker id="my-svg_flowchart-v2-crossEnd-margin" class="marker cross flowchart-v2" viewBox="0 0 15 15" refX="17.7" refY="7.5" markerUnits="userSpaceOnUse" markerWidth="12" markerHeight="12" orient="auto"><path d="M 1,1 L 14,14 M 1,14 L 14,1" class="arrowMarkerPath" style="stroke-width: 2.5;"/></marker><marker id="my-svg_flowchart-v2-crossStart-margin" class="marker cross flowchart-v2" viewBox="0 0 15 15" refX="-3.5" refY="7.5" markerUnits="userSpaceOnUse" markerWidth="12" markerHeight="12" orient="auto"><path d="M 1,1 L 14,14 M 1,14 L 14,1" class="arrowMarkerPath" style="stroke-width: 2.5; stroke-dasharray: 1, 0;"/></marker><g class="root"><g class="clusters"><g class="cluster" id="my-svg-App" data-look="classic"><rect style="" x="8" y="92.5" width="754.46875" height="941.2058792114258"/><g class="cluster-label" transform="translate(353.296875, 92.5)"><foreignObject width="63.875" height="19.5"><div xmlns="http://www.w3.org/1999/xhtml" style="display: table-cell; white-space: nowrap; line-height: 1.5;"><span class="nodeLabel"><p>ES Modules</p></span></div></foreignObject></g></g><g class="cluster" id="my-svg-Core" data-look="classic"><rect style="" x="919.265625" y="557.7058792114258" width="556.81640625" height="476"/><g class="cluster-label" transform="translate(1127.267578125, 557.7058792114258)"><foreignObject width="140.8125" height="19.5"><div xmlns="http://www.w3.org/1999/xhtml" style="display: table-cell; white-space: nowrap; line-height: 1.5;"><span class="nodeLabel"><p>Pure core (Node-tested)</p></span></div></foreignObject></g></g></g><g class="edgePaths"><path d="M156.27,43L156.186,47.083C156.103,51.167,155.936,59.333,155.853,67.583C155.77,75.833,155.77,84.167,155.77,91.833C155.77,99.5,155.77,106.5,155.77,110L155.77,113.5" id="my-svg-L_User_HTML_0" class="edge-thickness-normal edge-pattern-solid edge-thickness-normal edge-pattern-solid flowchart-link" style=";" data-edge="true" data-et="edge" data-id="L_User_HTML_0" data-points="W3sieCI6MTU2LjI2OTUzMTI1LCJ5Ijo0M30seyJ4IjoxNTUuNzY5NTMxMjUsInkiOjY3LjV9LHsieCI6MTU1Ljc2OTUzMTI1LCJ5Ijo5Mi41fSx7IngiOjE1NS43Njk1MzEyNSwieSI6MTE3LjV9XQ==" data-look="classic" marker-end="url(#my-svg_flowchart-v2-pointEnd)"/><path d="M1207.289,468.706L1207.289,476.123C1207.289,483.539,1207.289,498.373,1207.289,513.206C1207.289,528.039,1207.289,542.873,1207.289,553.789C1207.289,564.706,1207.289,571.706,1207.289,575.206L1207.289,578.706" id="my-svg-L_Sources_docio_0" class="edge-thickness-normal edge-pattern-solid edge-thickness-normal edge-pattern-solid flowchart-link" style=";" data-edge="true" data-et="edge" data-id="L_Sources_docio_0" data-points="W3sieCI6MTIwNy4yODkwNjI1LCJ5Ijo0NjguNzA1ODc5MjExNDI1OH0seyJ4IjoxMjA3LjI4OTA2MjUsInkiOjUxMy4yMDU4NzkyMTE0MjU4fSx7IngiOjEyMDcuMjg5MDYyNSwieSI6NTU3LjcwNTg3OTIxMTQyNTh9LHsieCI6MTIwNy4yODkwNjI1LCJ5Ijo1ODIuNzA1ODc5MjExNDI1OH1d" data-look="classic" marker-end="url(#my-svg_flowchart-v2-pointEnd)"/><path d="M1207.289,651.706L1207.289,655.873C1207.289,660.039,1207.289,668.373,1207.289,676.039C1207.289,683.706,1207.289,690.706,1207.289,694.206L1207.289,697.706" id="my-svg-L_docio_schema_0" class="edge-thickness-normal edge-pattern-solid edge-thickness-normal edge-pattern-solid flowchart-link" style=";" data-edge="true" data-et="edge" data-id="L_docio_schema_0" data-points="W3sieCI6MTIwNy4yODkwNjI1LCJ5Ijo2NTEuNzA1ODc5MjExNDI1OH0seyJ4IjoxMjA3LjI4OTA2MjUsInkiOjY3Ni43MDU4NzkyMTE0MjU4fSx7IngiOjEyMDcuMjg5MDYyNSwieSI6NzAxLjcwNTg3OTIxMTQyNTh9XQ==" data-look="classic" marker-end="url(#my-svg_flowchart-v2-pointEnd)"/><path d="M1129.354,770.706L1119.941,774.873C1110.529,779.039,1091.704,787.373,1082.291,795.039C1072.879,802.706,1072.879,809.706,1072.879,813.206L1072.879,816.706" id="my-svg-L_schema_tree_0" class="edge-thickness-normal edge-pattern-solid edge-thickness-normal edge-pattern-solid flowchart-link" style=";" data-edge="true" data-et="edge" data-id="L_schema_tree_0" data-points="W3sieCI6MTEyOS4zNTM3NjE4MTcyMjcsInkiOjc3MC43MDU4NzkyMTE0MjU4fSx7IngiOjEwNzIuODc4OTA2MjUsInkiOjc5NS43MDU4NzkyMTE0MjU4fSx7IngiOjEwNzIuODc4OTA2MjUsInkiOjgyMC43MDU4NzkyMTE0MjU4fV0=" data-look="classic" marker-end="url(#my-svg_flowchart-v2-pointEnd)"/><path d="M1145.462,889.706L1154.228,893.873C1162.994,898.039,1180.526,906.373,1189.293,914.039C1198.059,921.706,1198.059,928.706,1198.059,932.206L1198.059,935.706" id="my-svg-L_tree_handoff_0" class="edge-thickness-normal edge-pattern-solid edge-thickness-normal edge-pattern-solid flowchart-link" style=";" data-edge="true" data-et="edge" data-id="L_tree_handoff_0" data-points="W3sieCI6MTE0NS40NjIwODYzOTcwNTg4LCJ5Ijo4ODkuNzA1ODc5MjExNDI1OH0seyJ4IjoxMTk4LjA1ODU5Mzc1LCJ5Ijo5MTQuNzA1ODc5MjExNDI1OH0seyJ4IjoxMTk4LjA1ODU5Mzc1LCJ5Ijo5MzkuNzA1ODc5MjExNDI1OH1d" data-look="classic" marker-end="url(#my-svg_flowchart-v2-pointEnd)"/><path d="M1275.644,770.706L1283.899,774.873C1292.154,779.039,1308.665,787.373,1316.92,795.039C1325.176,802.706,1325.176,809.706,1325.176,813.206L1325.176,816.706" id="my-svg-L_schema_formats_0" class="edge-thickness-normal edge-pattern-solid edge-thickness-normal edge-pattern-solid flowchart-link" style=";" data-edge="true" data-et="edge" data-id="L_schema_formats_0" data-points="W3sieCI6MTI3NS42NDM1NDY0ODEwOTI1LCJ5Ijo3NzAuNzA1ODc5MjExNDI1OH0seyJ4IjoxMzI1LjE3NTc4MTI1LCJ5Ijo3OTUuNzA1ODc5MjExNDI1OH0seyJ4IjoxMzI1LjE3NTc4MTI1LCJ5Ijo4MjAuNzA1ODc5MjExNDI1OH1d" data-look="classic" marker-end="url(#my-svg_flowchart-v2-pointEnd)"/><path d="M155.77,186.5L155.77,190.667C155.77,194.833,155.77,203.167,155.77,210.833C155.77,218.5,155.77,225.5,155.77,229L155.77,232.5" id="my-svg-L_HTML_app_0" class="edge-thickness-normal edge-pattern-solid edge-thickness-normal edge-pattern-solid flowchart-link" style=";" data-edge="true" data-et="edge" data-id="L_HTML_app_0" data-points="W3sieCI6MTU1Ljc2OTUzMTI1LCJ5IjoxODYuNX0seyJ4IjoxNTUuNzY5NTMxMjUsInkiOjIxMS41fSx7IngiOjE1NS43Njk1MzEyNSwieSI6MjM2LjV9XQ==" data-look="classic" marker-end="url(#my-svg_flowchart-v2-pointEnd)"/><path d="M155.77,305.5L155.77,311.292C155.77,317.083,155.77,328.667,159.466,341.715C163.163,354.763,170.556,369.276,174.253,376.532L177.949,383.789" id="my-svg-L_app_state_0" class="edge-thickness-normal edge-pattern-solid edge-thickness-normal edge-pattern-solid flowchart-link" style=";" data-edge="true" data-et="edge" data-id="L_app_state_0" data-points="W3sieCI6MTU1Ljc2OTUzMTI1LCJ5IjozMDUuNX0seyJ4IjoxNTUuNzY5NTMxMjUsInkiOjM0MC4yNX0seyJ4IjoxNzkuNzY0NzkzMjkwMDU4MDQsInkiOjM4Ny4zNTI5Mzk2MDU3MTI5fV0=" data-look="classic" marker-end="url(#my-svg_flowchart-v2-pointEnd)"/><path d="M159.174,456.353L148.692,465.828C138.21,475.304,117.246,494.255,106.763,511.147C96.281,528.039,96.281,542.873,96.281,560.206C96.281,577.539,96.281,597.373,96.281,617.206C96.281,637.039,96.281,656.873,96.281,676.706C96.281,696.539,96.281,716.373,96.281,736.206C96.281,756.039,96.281,775.873,127.128,791.699C157.974,807.525,219.667,819.345,250.514,825.254L281.361,831.164" id="my-svg-L_state_nav_0" class="edge-thickness-normal edge-pattern-solid edge-thickness-normal edge-pattern-solid flowchart-link" style=";" data-edge="true" data-et="edge" data-id="L_state_nav_0" data-points="W3sieCI6MTU5LjE3NDQ0MzcxNTU0OTgsInkiOjQ1Ni4zNTI5Mzk2MDU3MTI5fSx7IngiOjk2LjI4MTI1LCJ5Ijo1MTMuMjA1ODc5MjExNDI1OH0seyJ4Ijo5Ni4yODEyNSwieSI6NTU3LjcwNTg3OTIxMTQyNTh9LHsieCI6OTYuMjgxMjUsInkiOjYxNy4yMDU4NzkyMTE0MjU4fSx7IngiOjk2LjI4MTI1LCJ5Ijo2NzYuNzA1ODc5MjExNDI1OH0seyJ4Ijo5Ni4yODEyNSwieSI6NzM2LjIwNTg3OTIxMTQyNTh9LHsieCI6OTYuMjgxMjUsInkiOjc5NS43MDU4NzkyMTE0MjU4fSx7IngiOjI4NS4yODkwNjI1LCJ5Ijo4MzEuOTE2NTY3NzEyOTIyNX1d" data-look="classic" marker-end="url(#my-svg_flowchart-v2-pointEnd)"/><path d="M285.289,883.153L262.414,888.412C239.539,893.67,193.789,904.188,170.914,912.947C148.039,921.706,148.039,928.706,148.039,932.206L148.039,935.706" id="my-svg-L_nav_chart_0" class="edge-thickness-normal edge-pattern-solid edge-thickness-normal edge-pattern-solid flowchart-link" style=";" data-edge="true" data-et="edge" data-id="L_nav_chart_0" data-points="W3sieCI6Mjg1LjI4OTA2MjUsInkiOjg4My4xNTI2MzEyMDM2OTgyfSx7IngiOjE0OC4wMzkwNjI1LCJ5Ijo5MTQuNzA1ODc5MjExNDI1OH0seyJ4IjoxNDguMDM5MDYyNSwieSI6OTM5LjcwNTg3OTIxMTQyNTh9XQ==" data-look="classic" marker-end="url(#my-svg_flowchart-v2-pointEnd)"/><path d="M406.852,889.706L406.852,893.873C406.852,898.039,406.852,906.373,406.852,914.039C406.852,921.706,406.852,928.706,406.852,932.206L406.852,935.706" id="my-svg-L_nav_overview_0" class="edge-thickness-normal edge-pattern-solid edge-thickness-normal edge-pattern-solid flowchart-link" style=";" data-edge="true" data-et="edge" data-id="L_nav_overview_0" data-points="W3sieCI6NDA2Ljg1MTU2MjUsInkiOjg4OS43MDU4NzkyMTE0MjU4fSx7IngiOjQwNi44NTE1NjI1LCJ5Ijo5MTQuNzA1ODc5MjExNDI1OH0seyJ4Ijo0MDYuODUxNTYyNSwieSI6OTM5LjcwNTg3OTIxMTQyNTh9XQ==" data-look="classic" marker-end="url(#my-svg_flowchart-v2-pointEnd)"/><path d="M528.414,885.7L547.686,890.534C566.958,895.368,605.503,905.037,624.775,913.372C644.047,921.706,644.047,928.706,644.047,932.206L644.047,935.706" id="my-svg-L_nav_panel_0" class="edge-thickness-normal edge-pattern-solid edge-thickness-normal edge-pattern-solid flowchart-link" style=";" data-edge="true" data-et="edge" data-id="L_nav_panel_0" data-points="W3sieCI6NTI4LjQxNDA2MjUsInkiOjg4NS42OTk2MDQ3MTQ1MzgzfSx7IngiOjY0NC4wNDY4NzUsInkiOjkxNC43MDU4NzkyMTE0MjU4fSx7IngiOjY0NC4wNDY4NzUsInkiOjkzOS43MDU4NzkyMTE0MjU4fV0=" data-look="classic" marker-end="url(#my-svg_flowchart-v2-pointEnd)"/><path d="M531.723,770.706L531.723,774.873C531.723,779.039,531.723,787.373,523.58,795.419C515.437,803.466,499.152,811.225,491.009,815.105L482.867,818.985" id="my-svg-L_events_nav_0" class="edge-thickness-normal edge-pattern-solid edge-thickness-normal edge-pattern-solid flowchart-link" style=";" data-edge="true" data-et="edge" data-id="L_events_nav_0" data-points="W3sieCI6NTMxLjcyMjY1NjI1LCJ5Ijo3NzAuNzA1ODc5MjExNDI1OH0seyJ4Ijo1MzEuNzIyNjU2MjUsInkiOjc5NS43MDU4NzkyMTE0MjU4fSx7IngiOjQ3OS4yNTU4MTAxMzY1NTQ2LCJ5Ijo4MjAuNzA1ODc5MjExNDI1OH1d" data-look="classic" marker-end="url(#my-svg_flowchart-v2-pointEnd)"/><path d="M282.526,457.912L304.297,467.128C326.068,476.343,369.61,494.775,391.381,511.407C413.152,528.039,413.152,542.873,476.545,559.108C539.937,575.343,666.722,592.98,730.114,601.799L793.507,610.618" id="my-svg-L_state_Storage_0" class="edge-thickness-normal edge-pattern-solid edge-thickness-normal edge-pattern-solid flowchart-link" style=";" data-edge="true" data-et="edge" data-id="L_state_Storage_0" data-points="W3sieCI6Mjc4Ljg0Mjc2Mjg5MTI1MDk3LCJ5Ijo0NTYuMzUyOTM5NjA1NzEyOX0seyJ4Ijo0MTMuMTUyMzQzNzUsInkiOjUxMy4yMDU4NzkyMTE0MjU4fSx7IngiOjQxMy4xNTIzNDM3NSwieSI6NTU3LjcwNTg3OTIxMTQyNTh9LHsieCI6Nzk3LjQ2ODc1LCJ5Ijo2MTEuMTY4NjYyOTAwMTc4N31d" data-look="classic" marker-start="url(#my-svg_flowchart-v2-pointStart)" marker-end="url(#my-svg_flowchart-v2-pointEnd)"/><path d="M310.074,451.366L349.444,461.673C388.814,471.979,467.553,492.593,506.923,510.316C546.293,528.039,546.293,542.873,637.953,558.54C729.612,574.207,912.931,590.709,1004.591,598.96L1096.25,607.211" id="my-svg-L_state_docio_0" class="edge-thickness-normal edge-pattern-solid edge-thickness-normal edge-pattern-solid flowchart-link" style=";" data-edge="true" data-et="edge" data-id="L_state_docio_0" data-points="W3sieCI6MzEwLjA3NDIxODc1LCJ5Ijo0NTEuMzY1ODMzNDk2MTUzODd9LHsieCI6NTQ2LjI5Mjk2ODc1LCJ5Ijo1MTMuMjA1ODc5MjExNDI1OH0seyJ4Ijo1NDYuMjkyOTY4NzUsInkiOjU1Ny43MDU4NzkyMTE0MjU4fSx7IngiOjExMDAuMjM0Mzc1LCJ5Ijo2MDcuNTY5MjgwODAxMTE5NH1d" data-look="classic" marker-end="url(#my-svg_flowchart-v2-pointEnd)"/><path d="M1030.227,889.706L1025.076,893.873C1019.925,898.039,1009.623,906.373,880.763,919.186C751.903,931.999,504.486,949.292,380.777,957.939L257.068,966.585" id="my-svg-L_tree_chart_0" class="edge-thickness-normal edge-pattern-solid edge-thickness-normal edge-pattern-solid flowchart-link" style=";" data-edge="true" data-et="edge" data-id="L_tree_chart_0" data-points="W3sieCI6MTAzMC4yMjcyODQ2NjM4NjU1LCJ5Ijo4ODkuNzA1ODc5MjExNDI1OH0seyJ4Ijo5OTkuMzIwMzEyNSwieSI6OTE0LjcwNTg3OTIxMTQyNTh9LHsieCI6MjUzLjA3ODEyNSwieSI6OTY2Ljg2NDIxMTMyMTExMzR9XQ==" data-look="classic" marker-end="url(#my-svg_flowchart-v2-pointEnd)"/><path d="M1072.879,889.706L1072.879,893.873C1072.879,898.039,1072.879,906.373,979.834,918.851C886.789,931.33,700.699,947.955,607.654,956.267L514.609,964.579" id="my-svg-L_tree_overview_0" class="edge-thickness-normal edge-pattern-solid edge-thickness-normal edge-pattern-solid flowchart-link" style=";" data-edge="true" data-et="edge" data-id="L_tree_overview_0" data-points="W3sieCI6MTA3Mi44Nzg5MDYyNSwieSI6ODg5LjcwNTg3OTIxMTQyNTh9LHsieCI6MTA3Mi44Nzg5MDYyNSwieSI6OTE0LjcwNTg3OTIxMTQyNTh9LHsieCI6NTEwLjYyNSwieSI6OTY0LjkzNTIwOTQ4NzEzOTR9XQ==" data-look="classic" marker-end="url(#my-svg_flowchart-v2-pointEnd)"/><path d="M797.469,283.979L740.344,293.357C683.22,302.736,568.971,321.493,487.721,338.521C406.471,355.548,358.22,370.846,334.094,378.495L309.969,386.144" id="my-svg-L_Auth_state_0" class="edge-thickness-normal edge-pattern-dotted edge-thickness-normal edge-pattern-solid flowchart-link" style=";" data-edge="true" data-et="edge" data-id="L_Auth_state_0" data-points="W3sieCI6Nzk3LjQ2ODc1LCJ5IjoyODMuOTc4OTYzODkxNzk1OH0seyJ4Ijo0NTQuNzIyNjU2MjUsInkiOjM0MC4yNX0seyJ4IjozMDYuMTU1ODYyODA3MDkyMjYsInkiOjM4Ny4zNTI5Mzk2MDU3MTI5fV0=" data-look="classic" marker-end="url(#my-svg_flowchart-v2-pointEnd)"/><path d="M1128.882,1008.706L1120.527,1012.873C1112.173,1017.039,1095.463,1025.373,1087.109,1035.331C1078.754,1045.289,1078.754,1056.873,1078.754,1067.789C1078.754,1078.706,1078.754,1088.956,1078.754,1094.081L1078.754,1099.206" id="my-svg-L_handoff_Floorplan_0" class="edge-thickness-normal edge-pattern-solid edge-thickness-normal edge-pattern-solid flowchart-link" style=";" data-edge="true" data-et="edge" data-id="L_handoff_Floorplan_0" data-points="W3sieCI6MTEyOC44ODE5MjYyMDc5ODMzLCJ5IjoxMDA4LjcwNTg3OTIxMTQyNTh9LHsieCI6MTA3OC43NTM5MDYyNSwieSI6MTAzMy43MDU4NzkyMTE0MjU4fSx7IngiOjEwNzguNzUzOTA2MjUsInkiOjEwNjguNDU1ODc5MjExNDI1OH0seyJ4IjoxMDc4Ljc1MzkwNjI1LCJ5IjoxMTAzLjIwNTg3OTIxMTQyNTh9XQ==" data-look="classic" marker-end="url(#my-svg_flowchart-v2-pointEnd)"/><path d="M1267.235,1008.706L1275.59,1012.873C1283.945,1017.039,1300.654,1025.373,1309.009,1035.331C1317.363,1045.289,1317.363,1056.873,1317.363,1067.789C1317.363,1078.706,1317.363,1088.956,1317.363,1094.081L1317.363,1099.206" id="my-svg-L_handoff_Reparto_0" class="edge-thickness-normal edge-pattern-solid edge-thickness-normal edge-pattern-solid flowchart-link" style=";" data-edge="true" data-et="edge" data-id="L_handoff_Reparto_0" data-points="W3sieCI6MTI2Ny4yMzUyNjEyOTIwMTY3LCJ5IjoxMDA4LjcwNTg3OTIxMTQyNTh9LHsieCI6MTMxNy4zNjMyODEyNSwieSI6MTAzMy43MDU4NzkyMTE0MjU4fSx7IngiOjEzMTcuMzYzMjgxMjUsInkiOjEwNjguNDU1ODc5MjExNDI1OH0seyJ4IjoxMzE3LjM2MzI4MTI1LCJ5IjoxMTAzLjIwNTg3OTIxMTQyNTh9XQ==" data-look="classic" marker-end="url(#my-svg_flowchart-v2-pointEnd)"/></g><g class="edgeLabels"><g class="edgeLabel"><g class="label" data-id="L_User_HTML_0" transform="translate(0, 0)"><foreignObject width="0" height="0"><div xmlns="http://www.w3.org/1999/xhtml" class="labelBkg" style="display: table-cell; white-space: nowrap; line-height: 1.5; max-width: 200px; text-align: center;"><span class="edgeLabel"></span></div></foreignObject></g></g><g class="edgeLabel"><g class="label" data-id="L_Sources_docio_0" transform="translate(0, 0)"><foreignObject width="0" height="0"><div xmlns="http://www.w3.org/1999/xhtml" class="labelBkg" style="display: table-cell; white-space: nowrap; line-height: 1.5; max-width: 200px; text-align: center;"><span class="edgeLabel"></span></div></foreignObject></g></g><g class="edgeLabel"><g class="label" data-id="L_docio_schema_0" transform="translate(0, 0)"><foreignObject width="0" height="0"><div xmlns="http://www.w3.org/1999/xhtml" class="labelBkg" style="display: table-cell; white-space: nowrap; line-height: 1.5; max-width: 200px; text-align: center;"><span class="edgeLabel"></span></div></foreignObject></g></g><g class="edgeLabel"><g class="label" data-id="L_schema_tree_0" transform="translate(0, 0)"><foreignObject width="0" height="0"><div xmlns="http://www.w3.org/1999/xhtml" class="labelBkg" style="display: table-cell; white-space: nowrap; line-height: 1.5; max-width: 200px; text-align: center;"><span class="edgeLabel"></span></div></foreignObject></g></g><g class="edgeLabel"><g class="label" data-id="L_tree_handoff_0" transform="translate(0, 0)"><foreignObject width="0" height="0"><div xmlns="http://www.w3.org/1999/xhtml" class="labelBkg" style="display: table-cell; white-space: nowrap; line-height: 1.5; max-width: 200px; text-align: center;"><span class="edgeLabel"></span></div></foreignObject></g></g><g class="edgeLabel"><g class="label" data-id="L_schema_formats_0" transform="translate(0, 0)"><foreignObject width="0" height="0"><div xmlns="http://www.w3.org/1999/xhtml" class="labelBkg" style="display: table-cell; white-space: nowrap; line-height: 1.5; max-width: 200px; text-align: center;"><span class="edgeLabel"></span></div></foreignObject></g></g><g class="edgeLabel"><g class="label" data-id="L_HTML_app_0" transform="translate(0, 0)"><foreignObject width="0" height="0"><div xmlns="http://www.w3.org/1999/xhtml" class="labelBkg" style="display: table-cell; white-space: nowrap; line-height: 1.5; max-width: 200px; text-align: center;"><span class="edgeLabel"></span></div></foreignObject></g></g><g class="edgeLabel"><g class="label" data-id="L_app_state_0" transform="translate(0, 0)"><foreignObject width="0" height="0"><div xmlns="http://www.w3.org/1999/xhtml" class="labelBkg" style="display: table-cell; white-space: nowrap; line-height: 1.5; max-width: 200px; text-align: center;"><span class="edgeLabel"></span></div></foreignObject></g></g><g class="edgeLabel"><g class="label" data-id="L_state_nav_0" transform="translate(0, 0)"><foreignObject width="0" height="0"><div xmlns="http://www.w3.org/1999/xhtml" class="labelBkg" style="display: table-cell; white-space: nowrap; line-height: 1.5; max-width: 200px; text-align: center;"><span class="edgeLabel"></span></div></foreignObject></g></g><g class="edgeLabel"><g class="label" data-id="L_nav_chart_0" transform="translate(0, 0)"><foreignObject width="0" height="0"><div xmlns="http://www.w3.org/1999/xhtml" class="labelBkg" style="display: table-cell; white-space: nowrap; line-height: 1.5; max-width: 200px; text-align: center;"><span class="edgeLabel"></span></div></foreignObject></g></g><g class="edgeLabel"><g class="label" data-id="L_nav_overview_0" transform="translate(0, 0)"><foreignObject width="0" height="0"><div xmlns="http://www.w3.org/1999/xhtml" class="labelBkg" style="display: table-cell; white-space: nowrap; line-height: 1.5; max-width: 200px; text-align: center;"><span class="edgeLabel"></span></div></foreignObject></g></g><g class="edgeLabel"><g class="label" data-id="L_nav_panel_0" transform="translate(0, 0)"><foreignObject width="0" height="0"><div xmlns="http://www.w3.org/1999/xhtml" class="labelBkg" style="display: table-cell; white-space: nowrap; line-height: 1.5; max-width: 200px; text-align: center;"><span class="edgeLabel"></span></div></foreignObject></g></g><g class="edgeLabel"><g class="label" data-id="L_events_nav_0" transform="translate(0, 0)"><foreignObject width="0" height="0"><div xmlns="http://www.w3.org/1999/xhtml" class="labelBkg" style="display: table-cell; white-space: nowrap; line-height: 1.5; max-width: 200px; text-align: center;"><span class="edgeLabel"></span></div></foreignObject></g></g><g class="edgeLabel" transform="translate(413.15234375, 513.2058792114258)"><g class="label" data-id="L_state_Storage_0" transform="translate(-100, -19.5)"><foreignObject width="200" height="39"><div xmlns="http://www.w3.org/1999/xhtml" class="labelBkg" style="display: table; white-space: break-spaces; line-height: 1.5; max-width: 200px; text-align: center; width: 200px;"><span class="edgeLabel"><p>rama-site:doc, :preferences, :previous</p></span></div></foreignObject></g></g><g class="edgeLabel"><g class="label" data-id="L_state_docio_0" transform="translate(0, 0)"><foreignObject width="0" height="0"><div xmlns="http://www.w3.org/1999/xhtml" class="labelBkg" style="display: table-cell; white-space: nowrap; line-height: 1.5; max-width: 200px; text-align: center;"><span class="edgeLabel"></span></div></foreignObject></g></g><g class="edgeLabel"><g class="label" data-id="L_tree_chart_0" transform="translate(0, 0)"><foreignObject width="0" height="0"><div xmlns="http://www.w3.org/1999/xhtml" class="labelBkg" style="display: table-cell; white-space: nowrap; line-height: 1.5; max-width: 200px; text-align: center;"><span class="edgeLabel"></span></div></foreignObject></g></g><g class="edgeLabel"><g class="label" data-id="L_tree_overview_0" transform="translate(0, 0)"><foreignObject width="0" height="0"><div xmlns="http://www.w3.org/1999/xhtml" class="labelBkg" style="display: table-cell; white-space: nowrap; line-height: 1.5; max-width: 200px; text-align: center;"><span class="edgeLabel"></span></div></foreignObject></g></g><g class="edgeLabel" transform="translate(549.19767, 324.73937)"><g class="label" data-id="L_Auth_state_0" transform="translate(-63.140625, -9.75)"><foreignObject width="126.28125" height="19.5"><div xmlns="http://www.w3.org/1999/xhtml" class="labelBkg" style="display: table-cell; white-space: nowrap; line-height: 1.5; max-width: 200px; text-align: center;"><span class="edgeLabel"><p>match people[].email</p></span></div></foreignObject></g></g><g class="edgeLabel" transform="translate(1078.75390625, 1068.4558792114258)"><g class="label" data-id="L_handoff_Floorplan_0" transform="translate(-27.0390625, -9.75)"><foreignObject width="54.078125" height="19.5"><div xmlns="http://www.w3.org/1999/xhtml" class="labelBkg" style="display: table-cell; white-space: nowrap; line-height: 1.5; max-width: 200px; text-align: center;"><span class="edgeLabel"><p>#d= YAML</p></span></div></foreignObject></g></g><g class="edgeLabel" transform="translate(1317.36328125, 1068.4558792114258)"><g class="label" data-id="L_handoff_Reparto_0" transform="translate(-27.15625, -9.75)"><foreignObject width="54.3125" height="19.5"><div xmlns="http://www.w3.org/1999/xhtml" class="labelBkg" style="display: table-cell; white-space: nowrap; line-height: 1.5; max-width: 200px; text-align: center;"><span class="edgeLabel"><p>#p= JSON</p></span></div></foreignObject></g></g></g><g class="nodes"><g class="node default" id="my-svg-flowchart-User-0" data-look="classic" transform="translate(155.76953125, 25.25)"><g class="basic label-container outer-path"><path d="M-13.1953125 -17.25 C-7.838231281535747 -17.25, -2.481150063071494 -17.25, 13.1953125 -17.25 C13.1953125 -17.25, 13.195312499999998 -17.25, 13.195312499999998 -17.25 C13.514635135441491 -17.239759944605197, 13.833957770882986 -17.22951988921039, 14.300523794667296 -17.2145580249433 C14.674856383277863 -17.178446610320844, 15.04918897188843 -17.14233519569839, 15.401193539057726 -17.108377738450997 C15.713735407227686 -17.057848393003667, 16.026277275397646 -17.007319047556333, 16.49279884509867 -16.93189545809588 C16.892614228171176 -16.84064020594878, 17.29242961124368 -16.749384953801684, 17.570854072438998 -16.685836387423258 C17.893528423508084 -16.590068333778188, 18.216202774577166 -16.494300280133114, 18.630929260907457 -16.371211635934035 C19.01063628326306 -16.231475941733937, 19.390343305618664 -16.091740247533835, 19.668668334169205 -15.989314064218876 C19.948881030170927 -15.865272215913208, 20.229093726172646 -15.741230367607539, 20.679806999777878 -15.54171297131673 C20.999907402386146 -15.37471679631009, 21.320007804994415 -15.20772062130345, 21.660190272067922 -15.030247646128469 C22.03393260306561 -14.803682848723943, 22.407674934063298 -14.577118051319415, 22.60578954588196 -14.457019809384253 C22.80813931977016 -14.315869366700378, 23.010489093658357 -14.174718924016503, 23.512719150973474 -13.824384977222252 C23.746995099376146 -13.637556142715933, 23.98127104777882 -13.450727308209615, 24.377252319059345 -13.13494278186757 C24.645485594353012 -12.89134041830942, 24.913718869646676 -12.64773805475127, 25.19583649791014 -12.391526289185801 C25.38093586836839 -12.20039599224672, 25.56603523882664 -12.009265695307638, 25.965107949549193 -11.597190357007719 C26.246117231612594 -11.267100864414921, 26.527126513675995 -10.937011371822125, 26.681905572573513 -10.755199082063154 C26.913322875832097 -10.445120978246687, 27.144740179090682 -10.135042874430217, 27.343283891797483 -9.86901238710743 C27.475923891481585 -9.665241728765633, 27.608563891165684 -9.461471070423833, 27.94652516184222 -8.94227180335656 C28.09704112931285 -8.675015461718031, 28.24755709678348 -8.407759120079502, 28.489150534934254 -7.978785506654408 C28.664999865391806 -7.6136306093863775, 28.84084919584936 -7.248475712118347, 28.96893024702276 -6.982512668861298 C29.124141119847273 -6.599138812186668, 29.27935199267179 -6.2157649555120384, 29.383892780358362 -5.957547188767565 C29.465787442891205 -5.710893513361145, 29.547682105424048 -5.464239837954726, 29.732332964882396 -4.908100869385314 C29.830852908158775 -4.532401626858966, 29.929372851435154 -4.156702384332617, 30.01281898513646 -3.838486110746425 C30.07211640836893 -3.53400637496251, 30.131413831601407 -3.2295266391785953, 30.224198263899265 -2.753098189325798 C30.264628411496037 -2.439529948400903, 30.30505855909281 -2.1259617074760078, 30.36560219837367 -1.6563971969075135 C30.38336450096174 -1.3797349966256915, 30.401126803549815 -1.1030727963438696, 30.436449729461867 -0.5528897131110516 C30.436449729461867 -0.3124830541395919, 30.436449729461867 -0.07207639516813213, 30.436449729461867 0.5528897131110474 C30.414309768795793 0.8977374715397175, 30.392169808129722 1.2425852299683875, 30.36560219837367 1.6563971969075018 C30.332783739397268 1.9109306839907267, 30.299965280420867 2.1654641710739515, 30.224198263899265 2.753098189325786 C30.15098109908064 3.129052856216163, 30.077763934262016 3.5050075231065394, 30.01281898513646 3.8384861107464214 C29.93023597783265 4.153410909297626, 29.847652970528834 4.468335707848829, 29.732332964882396 4.908100869385303 C29.657032483954495 5.134893920437796, 29.581732003026598 5.361686971490289, 29.38389278035837 5.9575471887675535 C29.22149091054231 6.358682947039772, 29.05908904072625 6.759818705311989, 28.968930247022765 6.982512668861292 C28.86187132821143 7.204822804466935, 28.754812409400092 7.427132940072578, 28.489150534934254 7.978785506654404 C28.353005758158897 8.22052434397262, 28.21686098138354 8.462263181290835, 27.946525161842224 8.942271803356554 C27.75901104765481 9.230343837338392, 27.57149693346739 9.51841587132023, 27.34328389179749 9.869012387107421 C27.10283452785964 10.191192629396454, 26.862385163921783 10.513372871685489, 26.681905572573516 10.75519908206315 C26.523964215606995 10.940725987073833, 26.366022858640473 11.126252892084514, 25.9651079495492 11.597190357007708 C25.714097012604775 11.856379757784016, 25.463086075660346 12.115569158560321, 25.195836497910143 12.391526289185798 C24.900704374245468 12.659557475129974, 24.60557225058079 12.92758866107415, 24.377252319059362 13.13494278186756 C24.170302072141073 13.29998009660754, 23.96335182522278 13.46501741134752, 23.51271915097348 13.82438497722225 C23.28954181715913 13.980063824100071, 23.066364483344778 14.135742670977892, 22.605789545881972 14.457019809384246 C22.35465809200934 14.60925717253407, 22.103526638136714 14.761494535683894, 21.66019027206793 15.030247646128467 C21.409329802202464 15.16112139257348, 21.158469332337003 15.291995139018493, 20.67980699977788 15.541712971316729 C20.44750096257507 15.644547962872663, 20.21519492537226 15.747382954428595, 19.66866833416921 15.989314064218874 C19.322894944845853 16.116561867784043, 18.977121555522494 16.24380967134921, 18.630929260907468 16.37121163593403 C18.373861977221864 16.44750785635821, 18.11679469353626 16.52380407678239, 17.57085407243902 16.685836387423254 C17.27492210247412 16.753380928431163, 16.978990132509228 16.82092546943907, 16.492798845098676 16.931895458095877 C16.17304766936735 16.983590348480714, 15.85329649363602 17.035285238865555, 15.401193539057738 17.108377738450994 C15.15414765179116 17.13220995807945, 14.907101764524583 17.15604217770791, 14.300523794667297 17.2145580249433 C13.955360158257374 17.225626750942705, 13.610196521847453 17.23669547694211, 13.195312500000004 17.25 C13.195312500000002 17.25, 13.195312500000002 17.25, 13.1953125 17.25 C4.008990054820419 17.25, -5.177332390359162 17.25, -13.195312499999996 17.25 C-13.631407673448145 17.23601527659528, -14.067502846896293 17.222030553190557, -14.30052379466729 17.2145580249433 C-14.547103283153689 17.19077079824424, -14.793682771640086 17.16698357154518, -15.401193539057733 17.108377738450994 C-15.705876970444267 17.05911888411972, -16.0105604018308 17.009860029788445, -16.492798845098672 16.931895458095877 C-16.84358176414003 16.85183154589716, -17.194364683181387 16.771767633698442, -17.570854072438998 16.685836387423258 C-17.983522688229538 16.563358508398395, -18.396191304020075 16.44088062937353, -18.630929260907447 16.37121163593404 C-18.938835761852502 16.257899197329763, -19.246742262797554 16.14458675872549, -19.668668334169205 15.989314064218876 C-20.061617789172946 15.81536699692015, -20.454567244176683 15.641419929621422, -20.679806999777874 15.541712971316732 C-20.906986342862467 15.423193653544814, -21.13416568594706 15.304674335772896, -21.660190272067922 15.03024764612847 C-21.877379179740924 14.898586453953403, -22.094568087413926 14.766925261778335, -22.605789545881954 14.457019809384258 C-22.82234422521125 14.30596063958512, -23.038898904540545 14.154901469785981, -23.512719150973474 13.824384977222254 C-23.829951497052576 13.571400623131435, -24.14718384313168 13.318416269040618, -24.377252319059345 13.134942781867572 C-24.605288294681202 12.927846542309092, -24.83332427030306 12.720750302750611, -25.195836497910133 12.391526289185808 C-25.40590195958899 12.17461645330724, -25.615967421267847 11.95770661742867, -25.965107949549193 11.597190357007715 C-26.228101278636363 11.288263427917567, -26.491094607723532 10.979336498827418, -26.681905572573513 10.755199082063156 C-26.915400262392062 10.442337469510145, -27.14889495221061 10.129475856957134, -27.343283891797483 9.869012387107432 C-27.532369352603574 9.578526342753666, -27.72145481340966 9.288040298399899, -27.946525161842214 8.942271803356567 C-28.09844524286674 8.672522315921176, -28.250365323891273 8.402772828485784, -28.48915053493425 7.97878550665441 C-28.61599873030892 7.715382514842321, -28.74284692568359 7.451979523030231, -28.96893024702276 6.9825126688612995 C-29.066594282963827 6.74128061188119, -29.16425831890489 6.500048554901081, -29.383892780358362 5.957547188767567 C-29.49023719809702 5.637254746220699, -29.596581615835678 5.316962303673831, -29.732332964882396 4.90810086938531 C-29.799245792686442 4.652933256765465, -29.866158620490488 4.39776564414562, -30.012818985136455 3.8384861107464276 C-30.08802827496664 3.4523023029574778, -30.16323756479682 3.066118495168528, -30.224198263899265 2.7530981893258 C-30.263866289241943 2.445440818105603, -30.30353431458462 2.137783446885406, -30.36560219837367 1.6563971969075233 C-30.38326096766403 1.3813476113081689, -30.400919736954386 1.1062980257088144, -30.436449729461867 0.5528897131110537 C-30.436449729461867 0.13591680707388493, -30.436449729461867 -0.2810560989632839, -30.436449729461867 -0.5528897131110454 C-30.418178821770937 -0.8374738484085351, -30.399907914080003 -1.122057983706025, -30.36560219837367 -1.6563971969074995 C-30.331003492982227 -1.9247379236363669, -30.296404787590784 -2.1930786503652344, -30.224198263899265 -2.753098189325792 C-30.14387548863348 -3.1655386640910326, -30.063552713367695 -3.5779791388562727, -30.01281898513646 -3.8384861107464197 C-29.917746931407414 -4.201037056104005, -29.822674877678367 -4.563588001461591, -29.7323329648824 -4.908100869385301 C-29.601262257035383 -5.302864958139224, -29.470191549188367 -5.697629046893148, -29.383892780358373 -5.957547188767545 C-29.274064008861004 -6.228826377760893, -29.16423523736363 -6.500105566754243, -28.968930247022765 -6.982512668861291 C-28.835539956261346 -7.259500461722385, -28.702149665499924 -7.536488254583479, -28.489150534934254 -7.978785506654402 C-28.326394996241653 -8.267774446388525, -28.16363945754905 -8.556763386122649, -27.94652516184222 -8.942271803356562 C-27.736277129033354 -9.265269241252865, -27.526029096224487 -9.58826667914917, -27.34328389179749 -9.869012387107427 C-27.101368021548975 -10.193157614251275, -26.859452151300456 -10.517302841395125, -26.68190557257352 -10.75519908206315 C-26.43621179117976 -11.043804978060471, -26.190518009785993 -11.332410874057793, -25.9651079495492 -11.597190357007708 C-25.660741907089967 -11.911473284763682, -25.356375864630735 -12.225756212519657, -25.19583649791015 -12.39152628918579 C-24.912488643011294 -12.648855314031515, -24.629140788112437 -12.906184338877239, -24.377252319059366 -13.134942781867558 C-24.19359070307507 -13.281408033174174, -24.009929087090775 -13.427873284480787, -23.51271915097348 -13.824384977222248 C-23.21915643238743 -14.02916162158261, -22.925593713801376 -14.233938265942973, -22.605789545881976 -14.457019809384244 C-22.3107194525908 -14.635893033961697, -22.015649359299626 -14.814766258539148, -21.66019027206793 -15.030247646128466 C-21.27120415329529 -15.233181455134652, -20.88221803452265 -15.436115264140836, -20.67980699977788 -15.541712971316729 C-20.431761663117832 -15.65151528385265, -20.183716326457784 -15.761317596388572, -19.66866833416921 -15.98931406421887 C-19.33156002504903 -16.11337303817015, -18.994451715928847 -16.237432012121428, -18.63092926090747 -16.37121163593403 C-18.29053205796449 -16.472239738986126, -17.950134855021513 -16.573267842038224, -17.57085407243902 -16.68583638742325 C-17.189265514747685 -16.772931485618248, -16.80767695705635 -16.860026583813244, -16.49279884509868 -16.931895458095877 C-16.2726374908073 -16.967489438480904, -16.052476136515914 -17.003083418865934, -15.40119353905774 -17.108377738450994 C-15.040592975139848 -17.143164441166522, -14.679992411221956 -17.177951143882055, -14.3005237946673 -17.2145580249433 C-14.024573027199427 -17.22340722895041, -13.748622259731556 -17.23225643295752, -13.195312500000005 -17.25 C-13.195312500000004 -17.25, -13.195312500000002 -17.25, -13.1953125 -17.25" stroke="none" stroke-width="0" fill="#0f172a" style=""/><path d="M-13.1953125 -17.25 C-3.388426540708224 -17.25, 6.418459418583552 -17.25, 13.1953125 -17.25 M-13.1953125 -17.25 C-7.7214747425068415 -17.25, -2.247636985013683 -17.25, 13.1953125 -17.25 M13.1953125 -17.25 C13.1953125 -17.25, 13.195312499999998 -17.25, 13.195312499999998 -17.25 M13.1953125 -17.25 C13.1953125 -17.25, 13.195312499999998 -17.25, 13.195312499999998 -17.25 M13.195312499999998 -17.25 C13.454588529066642 -17.241685522398008, 13.713864558133286 -17.233371044796016, 14.300523794667296 -17.2145580249433 M13.195312499999998 -17.25 C13.422960038823074 -17.242699786518997, 13.650607577646149 -17.235399573037995, 14.300523794667296 -17.2145580249433 M14.300523794667296 -17.2145580249433 C14.59814907086581 -17.185846472495196, 14.895774347064325 -17.15713492004709, 15.401193539057726 -17.108377738450997 M14.300523794667296 -17.2145580249433 C14.66640066927327 -17.179262322881385, 15.032277543879244 -17.143966620819466, 15.401193539057726 -17.108377738450997 M15.401193539057726 -17.108377738450997 C15.781124069160125 -17.04695351674931, 16.161054599262524 -16.985529295047616, 16.49279884509867 -16.93189545809588 M15.401193539057726 -17.108377738450997 C15.698345715884562 -17.060336478951182, 15.995497892711398 -17.012295219451367, 16.49279884509867 -16.93189545809588 M16.49279884509867 -16.93189545809588 C16.756593488378382 -16.871686052188206, 17.020388131658095 -16.811476646280536, 17.570854072438998 -16.685836387423258 M16.49279884509867 -16.93189545809588 C16.724271502981143 -16.879063334434463, 16.955744160863617 -16.82623121077304, 17.570854072438998 -16.685836387423258 M17.570854072438998 -16.685836387423258 C17.858398647219097 -16.600494666980797, 18.145943221999197 -16.51515294653834, 18.630929260907457 -16.371211635934035 M17.570854072438998 -16.685836387423258 C17.922170589153534 -16.581567489360413, 18.27348710586807 -16.477298591297565, 18.630929260907457 -16.371211635934035 M18.630929260907457 -16.371211635934035 C18.85488518754784 -16.28879378470448, 19.078841114188226 -16.20637593347493, 19.668668334169205 -15.989314064218876 M18.630929260907457 -16.371211635934035 C18.88628681680574 -16.277237694864095, 19.141644372704025 -16.183263753794158, 19.668668334169205 -15.989314064218876 M19.668668334169205 -15.989314064218876 C19.95887649971849 -15.860847518049571, 20.249084665267773 -15.732380971880264, 20.679806999777878 -15.54171297131673 M19.668668334169205 -15.989314064218876 C20.037996722176814 -15.825823342585279, 20.407325110184424 -15.662332620951682, 20.679806999777878 -15.54171297131673 M20.679806999777878 -15.54171297131673 C20.916697781559826 -15.418127202196876, 21.15358856334177 -15.294541433077022, 21.660190272067922 -15.030247646128469 M20.679806999777878 -15.54171297131673 C21.00272241878476 -15.373248204058038, 21.32563783779164 -15.204783436799344, 21.660190272067922 -15.030247646128469 M21.660190272067922 -15.030247646128469 C21.996466506387705 -14.826395016705312, 22.332742740707484 -14.622542387282156, 22.60578954588196 -14.457019809384253 M21.660190272067922 -15.030247646128469 C22.00371153956048 -14.822003035019435, 22.347232807053036 -14.6137584239104, 22.60578954588196 -14.457019809384253 M22.60578954588196 -14.457019809384253 C22.900974796111818 -14.251111357187437, 23.196160046341674 -14.045202904990619, 23.512719150973474 -13.824384977222252 M22.60578954588196 -14.457019809384253 C22.852724035820412 -14.284768998824973, 23.099658525758862 -14.112518188265694, 23.512719150973474 -13.824384977222252 M23.512719150973474 -13.824384977222252 C23.726559501712536 -13.653852988038569, 23.940399852451602 -13.483320998854886, 24.377252319059345 -13.13494278186757 M23.512719150973474 -13.824384977222252 C23.804326082823206 -13.591836209058444, 24.09593301467294 -13.359287440894636, 24.377252319059345 -13.13494278186757 M24.377252319059345 -13.13494278186757 C24.576327746350998 -12.954147746048461, 24.775403173642655 -12.77335271022935, 25.19583649791014 -12.391526289185801 M24.377252319059345 -13.13494278186757 C24.677696065090203 -12.862087721028258, 24.978139811121057 -12.589232660188948, 25.19583649791014 -12.391526289185801 M25.19583649791014 -12.391526289185801 C25.453719037178644 -12.125241394840842, 25.71160157644715 -11.858956500495882, 25.965107949549193 -11.597190357007719 M25.19583649791014 -12.391526289185801 C25.40430946789886 -12.176260831723301, 25.612782437887578 -11.960995374260799, 25.965107949549193 -11.597190357007719 M25.965107949549193 -11.597190357007719 C26.136749125390047 -11.395570865205467, 26.3083903012309 -11.193951373403218, 26.681905572573513 -10.755199082063154 M25.965107949549193 -11.597190357007719 C26.210876956647663 -11.308496096617183, 26.45664596374613 -11.019801836226648, 26.681905572573513 -10.755199082063154 M26.681905572573513 -10.755199082063154 C26.818092149916055 -10.572721475276575, 26.954278727258597 -10.390243868489998, 27.343283891797483 -9.86901238710743 M26.681905572573513 -10.755199082063154 C26.827345670708045 -10.560322600428396, 26.972785768842577 -10.365446118793638, 27.343283891797483 -9.86901238710743 M27.343283891797483 -9.86901238710743 C27.52896503780768 -9.583756284466675, 27.714646183817877 -9.298500181825922, 27.94652516184222 -8.94227180335656 M27.343283891797483 -9.86901238710743 C27.47932224800297 -9.660020940562283, 27.61536060420846 -9.451029494017135, 27.94652516184222 -8.94227180335656 M27.94652516184222 -8.94227180335656 C28.145843401642903 -8.588362085430084, 28.345161641443582 -8.234452367503609, 28.489150534934254 -7.978785506654408 M27.94652516184222 -8.94227180335656 C28.068411117091024 -8.72585094752099, 28.190297072339824 -8.509430091685422, 28.489150534934254 -7.978785506654408 M28.489150534934254 -7.978785506654408 C28.676362742441114 -7.590035352066872, 28.86357494994797 -7.201285197479335, 28.96893024702276 -6.982512668861298 M28.489150534934254 -7.978785506654408 C28.613235642907654 -7.72112012495165, 28.737320750881057 -7.463454743248892, 28.96893024702276 -6.982512668861298 M28.96893024702276 -6.982512668861298 C29.108341817526885 -6.638163394376762, 29.247753388031008 -6.293814119892226, 29.383892780358362 -5.957547188767565 M28.96893024702276 -6.982512668861298 C29.089815518869486 -6.683923710242155, 29.21070079071621 -6.385334751623012, 29.383892780358362 -5.957547188767565 M29.383892780358362 -5.957547188767565 C29.516012607228248 -5.559623320671176, 29.648132434098137 -5.161699452574786, 29.732332964882396 -4.908100869385314 M29.383892780358362 -5.957547188767565 C29.50790770211422 -5.584034003533366, 29.63192262387008 -5.210520818299168, 29.732332964882396 -4.908100869385314 M29.732332964882396 -4.908100869385314 C29.7929364500835 -4.676993514596875, 29.8535399352846 -4.445886159808436, 30.01281898513646 -3.838486110746425 M29.732332964882396 -4.908100869385314 C29.834539549676972 -4.518342864949535, 29.93674613447155 -4.128584860513756, 30.01281898513646 -3.838486110746425 M30.01281898513646 -3.838486110746425 C30.069880425675773 -3.5454876735167806, 30.126941866215084 -3.252489236287136, 30.224198263899265 -2.753098189325798 M30.01281898513646 -3.838486110746425 C30.09678561708631 -3.407335202037874, 30.180752249036164 -2.9761842933293234, 30.224198263899265 -2.753098189325798 M30.224198263899265 -2.753098189325798 C30.262682244216794 -2.4546240375045025, 30.301166224534327 -2.156149885683207, 30.36560219837367 -1.6563971969075135 M30.224198263899265 -2.753098189325798 C30.254397598931043 -2.518878110352543, 30.28459693396282 -2.284658031379288, 30.36560219837367 -1.6563971969075135 M30.36560219837367 -1.6563971969075135 C30.393170272220832 -1.2270021941892555, 30.420738346067996 -0.7976071914709972, 30.436449729461867 -0.5528897131110516 M30.36560219837367 -1.6563971969075135 C30.384192141331724 -1.3668438298039591, 30.402782084289775 -1.0772904627004047, 30.436449729461867 -0.5528897131110516 M30.436449729461867 -0.5528897131110516 C30.436449729461867 -0.17403292269900922, 30.436449729461867 0.20482386771303318, 30.436449729461867 0.5528897131110474 M30.436449729461867 -0.5528897131110516 C30.436449729461867 -0.12466580123916404, 30.436449729461867 0.30355811063272353, 30.436449729461867 0.5528897131110474 M30.436449729461867 0.5528897131110474 C30.41683761294333 0.8583642585027945, 30.39722549642479 1.1638388038945418, 30.36560219837367 1.6563971969075018 M30.436449729461867 0.5528897131110474 C30.41462248349751 0.8928666876417135, 30.392795237533154 1.2328436621723795, 30.36560219837367 1.6563971969075018 M30.36560219837367 1.6563971969075018 C30.33317983771943 1.907858623622492, 30.300757477065194 2.1593200503374823, 30.224198263899265 2.753098189325786 M30.36560219837367 1.6563971969075018 C30.331842005572998 1.9182345855653713, 30.29808181277233 2.1800719742232406, 30.224198263899265 2.753098189325786 M30.224198263899265 2.753098189325786 C30.149318404483854 3.1375904415600435, 30.07443854506844 3.5220826937943013, 30.01281898513646 3.8384861107464214 M30.224198263899265 2.753098189325786 C30.181531571129508 2.9721826390897714, 30.138864878359755 3.191267088853756, 30.01281898513646 3.8384861107464214 M30.01281898513646 3.8384861107464214 C29.9550000976329 4.058974587661845, 29.897181210129343 4.279463064577268, 29.732332964882396 4.908100869385303 M30.01281898513646 3.8384861107464214 C29.926803288947777 4.166501239752408, 29.840787592759096 4.494516368758394, 29.732332964882396 4.908100869385303 M29.732332964882396 4.908100869385303 C29.614568652387167 5.262788215425838, 29.496804339891934 5.617475561466372, 29.38389278035837 5.9575471887675535 M29.732332964882396 4.908100869385303 C29.59674884210626 5.316458644790734, 29.46116471933012 5.724816420196164, 29.38389278035837 5.9575471887675535 M29.38389278035837 5.9575471887675535 C29.27482579327582 6.226944755528191, 29.165758806193274 6.496342322288827, 28.968930247022765 6.982512668861292 M29.38389278035837 5.9575471887675535 C29.220418859749234 6.361330933225359, 29.056944939140102 6.765114677683165, 28.968930247022765 6.982512668861292 M28.968930247022765 6.982512668861292 C28.809296475377057 7.31399561129915, 28.649662703731348 7.645478553737008, 28.489150534934254 7.978785506654404 M28.968930247022765 6.982512668861292 C28.837082907437708 7.256296490590807, 28.705235567852647 7.5300803123203215, 28.489150534934254 7.978785506654404 M28.489150534934254 7.978785506654404 C28.306935990584257 8.30232588137122, 28.124721446234265 8.625866256088033, 27.946525161842224 8.942271803356554 M28.489150534934254 7.978785506654404 C28.303583704750228 8.30827820432529, 28.1180168745662 8.637770901996175, 27.946525161842224 8.942271803356554 M27.946525161842224 8.942271803356554 C27.730050020027274 9.274835752899099, 27.513574878212324 9.607399702441644, 27.34328389179749 9.869012387107421 M27.946525161842224 8.942271803356554 C27.77643401877076 9.203577474981458, 27.606342875699298 9.464883146606363, 27.34328389179749 9.869012387107421 M27.34328389179749 9.869012387107421 C27.145673459971736 10.133792363073242, 26.94806302814598 10.398572339039065, 26.681905572573516 10.75519908206315 M27.34328389179749 9.869012387107421 C27.083317281769947 10.217343961098942, 26.823350671742404 10.565675535090463, 26.681905572573516 10.75519908206315 M26.681905572573516 10.75519908206315 C26.461630536387105 11.01394667357234, 26.241355500200694 11.272694265081531, 25.9651079495492 11.597190357007708 M26.681905572573516 10.75519908206315 C26.465079933537577 11.00989481540314, 26.248254294501635 11.26459054874313, 25.9651079495492 11.597190357007708 M25.9651079495492 11.597190357007708 C25.805590181060456 11.761905549624693, 25.646072412571712 11.926620742241678, 25.195836497910143 12.391526289185798 M25.9651079495492 11.597190357007708 C25.681970132455877 11.889553399203665, 25.39883231536255 12.181916441399624, 25.195836497910143 12.391526289185798 M25.195836497910143 12.391526289185798 C25.00422469651415 12.56554305744319, 24.812612895118157 12.739559825700582, 24.377252319059362 13.13494278186756 M25.195836497910143 12.391526289185798 C24.88833049197323 12.670795107614632, 24.580824486036324 12.950063926043466, 24.377252319059362 13.13494278186756 M24.377252319059362 13.13494278186756 C24.063223415636195 13.38537247568746, 23.749194512213023 13.635802169507361, 23.51271915097348 13.82438497722225 M24.377252319059362 13.13494278186756 C24.065817491693235 13.383303769063232, 23.754382664327107 13.631664756258905, 23.51271915097348 13.82438497722225 M23.51271915097348 13.82438497722225 C23.184295826237374 14.053478871341571, 22.855872501501267 14.282572765460893, 22.605789545881972 14.457019809384246 M23.51271915097348 13.82438497722225 C23.324023564611124 13.956010849768349, 23.135327978248768 14.087636722314446, 22.605789545881972 14.457019809384246 M22.605789545881972 14.457019809384246 C22.241059010254304 14.67812160347628, 21.87632847462664 14.899223397568312, 21.66019027206793 15.030247646128467 M22.605789545881972 14.457019809384246 C22.35199608987208 14.610870893873338, 22.09820263386219 14.764721978362433, 21.66019027206793 15.030247646128467 M21.66019027206793 15.030247646128467 C21.32873362588339 15.203168366134825, 20.997276979698853 15.376089086141185, 20.67980699977788 15.541712971316729 M21.66019027206793 15.030247646128467 C21.280249733794463 15.228462381582206, 20.900309195520993 15.426677117035943, 20.67980699977788 15.541712971316729 M20.67980699977788 15.541712971316729 C20.369603414774268 15.679030896535423, 20.05939982977065 15.816348821754117, 19.66866833416921 15.989314064218874 M20.67980699977788 15.541712971316729 C20.456559819571574 15.640537875601755, 20.233312639365266 15.73936277988678, 19.66866833416921 15.989314064218874 M19.66866833416921 15.989314064218874 C19.283906207079852 16.130910083689873, 18.89914407999049 16.27250610316087, 18.630929260907468 16.37121163593403 M19.66866833416921 15.989314064218874 C19.428836961976284 16.077574226162774, 19.18900558978336 16.16583438810667, 18.630929260907468 16.37121163593403 M18.630929260907468 16.37121163593403 C18.270479791662368 16.478191146368104, 17.910030322417267 16.585170656802177, 17.57085407243902 16.685836387423254 M18.630929260907468 16.37121163593403 C18.2564796621933 16.482346311306344, 17.882030063479135 16.593480986678657, 17.57085407243902 16.685836387423254 M17.57085407243902 16.685836387423254 C17.178792531433444 16.775321875717122, 16.78673099042787 16.864807364010993, 16.492798845098676 16.931895458095877 M17.57085407243902 16.685836387423254 C17.25318878651527 16.758341415975632, 16.93552350059152 16.830846444528007, 16.492798845098676 16.931895458095877 M16.492798845098676 16.931895458095877 C16.22493015486646 16.975202390579902, 15.95706146463424 17.01850932306393, 15.401193539057738 17.108377738450994 M16.492798845098676 16.931895458095877 C16.145368801448317 16.98806525319304, 15.79793875779796 17.044235048290197, 15.401193539057738 17.108377738450994 M15.401193539057738 17.108377738450994 C15.092719217555334 17.138135885251682, 14.78424489605293 17.167894032052367, 14.300523794667297 17.2145580249433 M15.401193539057738 17.108377738450994 C15.07022221724479 17.14030614381504, 14.739250895431844 17.17223454917908, 14.300523794667297 17.2145580249433 M14.300523794667297 17.2145580249433 C13.965167277793482 17.225312255707582, 13.629810760919666 17.236066486471866, 13.195312500000004 17.25 M14.300523794667297 17.2145580249433 C13.949923499288078 17.225801094014038, 13.599323203908856 17.23704416308477, 13.195312500000004 17.25 M13.195312500000004 17.25 C13.195312500000002 17.25, 13.195312500000002 17.25, 13.1953125 17.25 M13.195312500000004 17.25 C13.195312500000002 17.25, 13.195312500000002 17.25, 13.1953125 17.25 M13.1953125 17.25 C5.25304849217867 17.25, -2.68921551564266 17.25, -13.195312499999996 17.25 M13.1953125 17.25 C5.24464304355977 17.25, -2.70602641288046 17.25, -13.195312499999996 17.25 M-13.195312499999996 17.25 C-13.48066103383144 17.24084942791725, -13.766009567662884 17.231698855834505, -14.30052379466729 17.2145580249433 M-13.195312499999996 17.25 C-13.489042463729955 17.240580651773872, -13.782772427459914 17.23116130354774, -14.30052379466729 17.2145580249433 M-14.30052379466729 17.2145580249433 C-14.584794620698393 17.18713476024177, -14.869065446729497 17.159711495540236, -15.401193539057733 17.108377738450994 M-14.30052379466729 17.2145580249433 C-14.627610313800602 17.183004381821604, -14.954696832933912 17.151450738699904, -15.401193539057733 17.108377738450994 M-15.401193539057733 17.108377738450994 C-15.831438710909596 17.038819035667125, -16.26168388276146 16.969260332883255, -16.492798845098672 16.931895458095877 M-15.401193539057733 17.108377738450994 C-15.660338685293803 17.06648116090817, -15.919483831529872 17.024584583365346, -16.492798845098672 16.931895458095877 M-16.492798845098672 16.931895458095877 C-16.770236879353618 16.868572037229555, -17.047674913608564 16.805248616363233, -17.570854072438998 16.685836387423258 M-16.492798845098672 16.931895458095877 C-16.912031266837435 16.836208393581224, -17.3312636885762 16.740521329066574, -17.570854072438998 16.685836387423258 M-17.570854072438998 16.685836387423258 C-17.824287195245383 16.61061876687193, -18.077720318051767 16.535401146320606, -18.630929260907447 16.37121163593404 M-17.570854072438998 16.685836387423258 C-17.96090855457549 16.570070264562904, -18.350963036711985 16.45430414170255, -18.630929260907447 16.37121163593404 M-18.630929260907447 16.37121163593404 C-18.865490674433904 16.284890867494365, -19.10005208796036 16.19857009905469, -19.668668334169205 15.989314064218876 M-18.630929260907447 16.37121163593404 C-18.956467139495786 16.251410687374367, -19.282005018084124 16.131609738814696, -19.668668334169205 15.989314064218876 M-19.668668334169205 15.989314064218876 C-20.00091986576532 15.842236167072782, -20.33317139736143 15.695158269926687, -20.679806999777874 15.541712971316732 M-19.668668334169205 15.989314064218876 C-20.015001098462708 15.836002823062573, -20.36133386275621 15.68269158190627, -20.679806999777874 15.541712971316732 M-20.679806999777874 15.541712971316732 C-21.0685815520902 15.338889536397378, -21.457356104402525 15.136066101478022, -21.660190272067922 15.03024764612847 M-20.679806999777874 15.541712971316732 C-20.943421850272955 15.404185272666819, -21.207036700768032 15.266657574016907, -21.660190272067922 15.03024764612847 M-21.660190272067922 15.03024764612847 C-21.87109892064812 14.902393583922361, -22.082007569228317 14.77453952171625, -22.605789545881954 14.457019809384258 M-21.660190272067922 15.03024764612847 C-21.892045852760564 14.88969543057796, -22.123901433453202 14.749143215027452, -22.605789545881954 14.457019809384258 M-22.605789545881954 14.457019809384258 C-22.86281678719473 14.277728732374413, -23.119844028507508 14.098437655364568, -23.512719150973474 13.824384977222254 M-22.605789545881954 14.457019809384258 C-22.90080486459375 14.251229894058225, -23.195820183305543 14.045439978732192, -23.512719150973474 13.824384977222254 M-23.512719150973474 13.824384977222254 C-23.73826921393841 13.644514804146967, -23.963819276903344 13.46464463107168, -24.377252319059345 13.134942781867572 M-23.512719150973474 13.824384977222254 C-23.81971408398193 13.579564687626275, -24.126709016990382 13.334744398030296, -24.377252319059345 13.134942781867572 M-24.377252319059345 13.134942781867572 C-24.571870364687545 12.958195822139356, -24.76648841031574 12.78144886241114, -25.195836497910133 12.391526289185808 M-24.377252319059345 13.134942781867572 C-24.55976851428568 12.969186402476913, -24.742284709512013 12.803430023086255, -25.195836497910133 12.391526289185808 M-25.195836497910133 12.391526289185808 C-25.496016187097727 12.081566114888798, -25.79619587628532 11.771605940591789, -25.965107949549193 11.597190357007715 M-25.195836497910133 12.391526289185808 C-25.358712618169896 12.223343322639437, -25.52158873842966 12.055160356093063, -25.965107949549193 11.597190357007715 M-25.965107949549193 11.597190357007715 C-26.12417514274709 11.410340980697761, -26.283242335944994 11.223491604387805, -26.681905572573513 10.755199082063156 M-25.965107949549193 11.597190357007715 C-26.225932313244776 11.290811218084151, -26.486756676940363 10.984432079160587, -26.681905572573513 10.755199082063156 M-26.681905572573513 10.755199082063156 C-26.887702021684184 10.47945058869706, -27.093498470794856 10.203702095330964, -27.343283891797483 9.869012387107432 M-26.681905572573513 10.755199082063156 C-26.924305076042362 10.430405830463954, -27.16670457951121 10.10561257886475, -27.343283891797483 9.869012387107432 M-27.343283891797483 9.869012387107432 C-27.49673354621012 9.633272510927887, -27.65018320062276 9.397532634748343, -27.946525161842214 8.942271803356567 M-27.343283891797483 9.869012387107432 C-27.494701462945564 9.636394336513009, -27.64611903409364 9.403776285918587, -27.946525161842214 8.942271803356567 M-27.946525161842214 8.942271803356567 C-28.099196006822865 8.671189258493985, -28.251866851803516 8.400106713631402, -28.48915053493425 7.97878550665441 M-27.946525161842214 8.942271803356567 C-28.085337402766772 8.695796613331412, -28.22414964369133 8.449321423306257, -28.48915053493425 7.97878550665441 M-28.48915053493425 7.97878550665441 C-28.67617687128515 7.590421317499228, -28.863203207636055 7.2020571283440455, -28.96893024702276 6.9825126688612995 M-28.48915053493425 7.97878550665441 C-28.59580136698982 7.757322771928773, -28.702452199045393 7.535860037203135, -28.96893024702276 6.9825126688612995 M-28.96893024702276 6.9825126688612995 C-29.1311319232451 6.581871392636049, -29.29333359946744 6.181230116410799, -29.383892780358362 5.957547188767567 M-28.96893024702276 6.9825126688612995 C-29.128073077394163 6.589426801026625, -29.287215907765567 6.19634093319195, -29.383892780358362 5.957547188767567 M-29.383892780358362 5.957547188767567 C-29.481218444991566 5.664417793631165, -29.57854410962477 5.371288398494762, -29.732332964882396 4.90810086938531 M-29.383892780358362 5.957547188767567 C-29.498970360416763 5.610951852754088, -29.614047940475164 5.26435651674061, -29.732332964882396 4.90810086938531 M-29.732332964882396 4.90810086938531 C-29.82252650240709 4.564153820677217, -29.912720039931784 4.220206771969124, -30.012818985136455 3.8384861107464276 M-29.732332964882396 4.90810086938531 C-29.818793806610266 4.578388207511091, -29.90525464833814 4.248675545636874, -30.012818985136455 3.8384861107464276 M-30.012818985136455 3.8384861107464276 C-30.057440030763384 3.609366472113484, -30.102061076390314 3.38024683348054, -30.224198263899265 2.7530981893258 M-30.012818985136455 3.8384861107464276 C-30.055955592593847 3.6169887483779473, -30.099092200051235 3.395491386009467, -30.224198263899265 2.7530981893258 M-30.224198263899265 2.7530981893258 C-30.269709053189718 2.400125494710892, -30.31521984248017 2.0471528000959838, -30.36560219837367 1.6563971969075233 M-30.224198263899265 2.7530981893258 C-30.27556145517182 2.3547354206251967, -30.32692464644438 1.9563726519245932, -30.36560219837367 1.6563971969075233 M-30.36560219837367 1.6563971969075233 C-30.38593823011578 1.3396470875747757, -30.40627426185789 1.0228969782420283, -30.436449729461867 0.5528897131110537 M-30.36560219837367 1.6563971969075233 C-30.382083729873997 1.399684040137146, -30.398565261374323 1.1429708833667687, -30.436449729461867 0.5528897131110537 M-30.436449729461867 0.5528897131110537 C-30.436449729461867 0.2562868634564792, -30.436449729461867 -0.04031598619809529, -30.436449729461867 -0.5528897131110454 M-30.436449729461867 0.5528897131110537 C-30.436449729461867 0.24369748879788738, -30.436449729461867 -0.06549473551527896, -30.436449729461867 -0.5528897131110454 M-30.436449729461867 -0.5528897131110454 C-30.410760227005508 -0.9530244500620093, -30.385070724549145 -1.3531591870129733, -30.36560219837367 -1.6563971969074995 M-30.436449729461867 -0.5528897131110454 C-30.413034999563518 -0.9175930313076125, -30.38962026966517 -1.2822963495041795, -30.36560219837367 -1.6563971969074995 M-30.36560219837367 -1.6563971969074995 C-30.31331315899319 -2.061940660703771, -30.26102411961271 -2.4674841245000425, -30.224198263899265 -2.753098189325792 M-30.36560219837367 -1.6563971969074995 C-30.321651258299045 -1.9972720090314822, -30.277700318224426 -2.3381468211554646, -30.224198263899265 -2.753098189325792 M-30.224198263899265 -2.753098189325792 C-30.158382841149333 -3.0910464750521767, -30.092567418399398 -3.428994760778562, -30.01281898513646 -3.8384861107464197 M-30.224198263899265 -2.753098189325792 C-30.165346971807242 -3.0552871359933484, -30.106495679715216 -3.357476082660905, -30.01281898513646 -3.8384861107464197 M-30.01281898513646 -3.8384861107464197 C-29.936692393980486 -4.128789796297461, -29.86056580282451 -4.4190934818485035, -29.7323329648824 -4.908100869385301 M-30.01281898513646 -3.8384861107464197 C-29.923653569306932 -4.178512485840082, -29.834488153477405 -4.518538860933744, -29.7323329648824 -4.908100869385301 M-29.7323329648824 -4.908100869385301 C-29.638612502008485 -5.190371971233628, -29.544892039134567 -5.472643073081955, -29.383892780358373 -5.957547188767545 M-29.7323329648824 -4.908100869385301 C-29.61420190276577 -5.26389280685187, -29.49607084064914 -5.619684744318439, -29.383892780358373 -5.957547188767545 M-29.383892780358373 -5.957547188767545 C-29.228940804702678 -6.340281564429759, -29.073988829046982 -6.7230159400919725, -28.968930247022765 -6.982512668861291 M-29.383892780358373 -5.957547188767545 C-29.25485508608187 -6.276272788404601, -29.125817391805374 -6.594998388041656, -28.968930247022765 -6.982512668861291 M-28.968930247022765 -6.982512668861291 C-28.817627769579524 -7.296695500626585, -28.666325292136282 -7.61087833239188, -28.489150534934254 -7.978785506654402 M-28.968930247022765 -6.982512668861291 C-28.781670086318456 -7.371362399289362, -28.594409925614148 -7.7602121297174325, -28.489150534934254 -7.978785506654402 M-28.489150534934254 -7.978785506654402 C-28.292537094088274 -8.327892580146216, -28.09592365324229 -8.676999653638031, -27.94652516184222 -8.942271803356562 M-28.489150534934254 -7.978785506654402 C-28.30715868930745 -8.301930457237502, -28.125166843680645 -8.625075407820601, -27.94652516184222 -8.942271803356562 M-27.94652516184222 -8.942271803356562 C-27.753891888066782 -9.238208241152424, -27.561258614291347 -9.534144678948286, -27.34328389179749 -9.869012387107427 M-27.94652516184222 -8.942271803356562 C-27.81949136647368 -9.137429826393017, -27.692457571105138 -9.332587849429471, -27.34328389179749 -9.869012387107427 M-27.34328389179749 -9.869012387107427 C-27.144716382016135 -10.13507476034216, -26.946148872234776 -10.401137133576894, -26.68190557257352 -10.75519908206315 M-27.34328389179749 -9.869012387107427 C-27.208941999821203 -10.049018283557517, -27.074600107844915 -10.22902418000761, -26.68190557257352 -10.75519908206315 M-26.68190557257352 -10.75519908206315 C-26.39788138975774 -11.088830048632401, -26.113857206941958 -11.422461015201653, -25.9651079495492 -11.597190357007708 M-26.68190557257352 -10.75519908206315 C-26.46723985245643 -11.007357651738188, -26.252574132339344 -11.259516221413225, -25.9651079495492 -11.597190357007708 M-25.9651079495492 -11.597190357007708 C-25.767294599845933 -11.801448881354379, -25.56948125014267 -12.005707405701049, -25.19583649791015 -12.39152628918579 M-25.9651079495492 -11.597190357007708 C-25.73302771983448 -11.83683224832937, -25.500947490119767 -12.076474139651035, -25.19583649791015 -12.39152628918579 M-25.19583649791015 -12.39152628918579 C-24.94034954238983 -12.623552782374931, -24.684862586869507 -12.855579275564072, -24.377252319059366 -13.134942781867558 M-25.19583649791015 -12.39152628918579 C-24.91066246397502 -12.650513801514212, -24.625488430039884 -12.909501313842632, -24.377252319059366 -13.134942781867558 M-24.377252319059366 -13.134942781867558 C-24.174361147318724 -13.296743092169889, -23.97146997557808 -13.458543402472221, -23.51271915097348 -13.824384977222248 M-24.377252319059366 -13.134942781867558 C-24.14394443136263 -13.32099961372207, -23.910636543665895 -13.507056445576579, -23.51271915097348 -13.824384977222248 M-23.51271915097348 -13.824384977222248 C-23.30110228504258 -13.971999742149164, -23.08948541911168 -14.11961450707608, -22.605789545881976 -14.457019809384244 M-23.51271915097348 -13.824384977222248 C-23.318926583964995 -13.959566282822353, -23.12513401695651 -14.094747588422457, -22.605789545881976 -14.457019809384244 M-22.605789545881976 -14.457019809384244 C-22.36631408661764 -14.602191240104293, -22.1268386273533 -14.747362670824343, -21.66019027206793 -15.030247646128466 M-22.605789545881976 -14.457019809384244 C-22.233754746481527 -14.682549491099955, -21.86171994708108 -14.908079172815665, -21.66019027206793 -15.030247646128466 M-21.66019027206793 -15.030247646128466 C-21.39010321435994 -15.171151891135708, -21.120016156651946 -15.31205613614295, -20.67980699977788 -15.541712971316729 M-21.66019027206793 -15.030247646128466 C-21.26878024445701 -15.234446006822996, -20.87737021684609 -15.438644367517524, -20.67980699977788 -15.541712971316729 M-20.67980699977788 -15.541712971316729 C-20.279978809759914 -15.71870505055583, -19.880150619741947 -15.895697129794929, -19.66866833416921 -15.98931406421887 M-20.67980699977788 -15.541712971316729 C-20.33037018994829 -15.696398281353618, -19.980933380118696 -15.851083591390507, -19.66866833416921 -15.98931406421887 M-19.66866833416921 -15.98931406421887 C-19.284792254699166 -16.13058400997543, -18.900916175229124 -16.271853955731984, -18.63092926090747 -16.37121163593403 M-19.66866833416921 -15.98931406421887 C-19.369559720799707 -16.099388798868564, -19.0704511074302 -16.209463533518253, -18.63092926090747 -16.37121163593403 M-18.63092926090747 -16.37121163593403 C-18.285251683782878 -16.47380692632598, -17.939574106658284 -16.57640221671793, -17.57085407243902 -16.68583638742325 M-18.63092926090747 -16.37121163593403 C-18.29855028957279 -16.46985996993334, -17.96617131823811 -16.56850830393265, -17.57085407243902 -16.68583638742325 M-17.57085407243902 -16.68583638742325 C-17.247962469937264 -16.759534288629656, -16.925070867435508 -16.83323218983606, -16.49279884509868 -16.931895458095877 M-17.57085407243902 -16.68583638742325 C-17.200570389797196 -16.7703512216594, -16.830286707155377 -16.854866055895553, -16.49279884509868 -16.931895458095877 M-16.49279884509868 -16.931895458095877 C-16.18033860784047 -16.982411606090455, -15.867878370582257 -17.03292775408503, -15.40119353905774 -17.108377738450994 M-16.49279884509868 -16.931895458095877 C-16.06295761647371 -17.001388854471447, -15.633116387848744 -17.070882250847017, -15.40119353905774 -17.108377738450994 M-15.40119353905774 -17.108377738450994 C-14.981003002184984 -17.148913014190054, -14.56081246531223 -17.18944828992911, -14.3005237946673 -17.2145580249433 M-15.40119353905774 -17.108377738450994 C-14.967566774259732 -17.150209190938572, -14.533940009461725 -17.192040643426154, -14.3005237946673 -17.2145580249433 M-14.3005237946673 -17.2145580249433 C-14.00658029356811 -17.223984220897236, -13.712636792468922 -17.23341041685117, -13.195312500000005 -17.25 M-14.3005237946673 -17.2145580249433 C-14.012659793830842 -17.22378926315684, -13.724795792994387 -17.23302050137038, -13.195312500000005 -17.25 M-13.195312500000005 -17.25 C-13.195312500000004 -17.25, -13.195312500000002 -17.25, -13.1953125 -17.25 M-13.195312500000005 -17.25 C-13.195312500000004 -17.25, -13.195312500000002 -17.25, -13.1953125 -17.25" stroke="#0063e5" stroke-width="1.3" fill="none" stroke-dasharray="0 0" style=""/></g><g class="label" style="" transform="translate(-18.6328125, -9.75)"><rect/><foreignObject width="37.265625" height="19.5"><div xmlns="http://www.w3.org/1999/xhtml" style="display: table-cell; white-space: nowrap; line-height: 1.5; max-width: 200px; text-align: center;"><span class="nodeLabel"><p>Visitor</p></span></div></foreignObject></g></g><g class="node default" id="my-svg-flowchart-HTML-1" data-look="classic" transform="translate(155.76953125, 152)"><rect class="basic label-container" style="" x="-62.0234375" y="-34.5" width="124.046875" height="69"/><g class="label" style="" transform="translate(-32.0234375, -19.5)"><rect/><foreignObject width="64.046875" height="39"><div xmlns="http://www.w3.org/1999/xhtml" style="display: table-cell; white-space: nowrap; line-height: 1.5; max-width: 200px; text-align: center;"><span class="nodeLabel"><p>index.html<br />Shell + CSP</p></span></div></foreignObject></g></g><g class="node default" id="my-svg-flowchart-Sources-2" data-look="classic" transform="translate(1207.2890625, 421.8529396057129)"><path d="M0,13.235294117647058 a70.3125,13.235294117647058 0,0,0 140.625,0 a70.3125,13.235294117647058 0,0,0 -140.625,0 l0,67.23529411764706 a70.3125,13.235294117647058 0,0,0 140.625,0 l0,-67.23529411764706" class="basic label-container outer-path" style="" transform="translate(-70.3125, -46.85294117647059)"/><g class="label" style="" transform="translate(-62.8125, -9.5)"><rect/><foreignObject width="125.625" height="39"><div xmlns="http://www.w3.org/1999/xhtml" style="display: table-cell; white-space: nowrap; line-height: 1.5; max-width: 200px; text-align: center;"><span class="nodeLabel"><p>#d= link · ?src= URL<br />file · paste · example</p></span></div></foreignObject></g></g><g class="node default" id="my-svg-flowchart-docio-3" data-look="classic" transform="translate(1207.2890625, 617.2058792114258)"><rect class="basic label-container" style="" x="-107.0546875" y="-34.5" width="214.109375" height="69"/><g class="label" style="" transform="translate(-77.0546875, -19.5)"><rect/><foreignObject width="154.109375" height="39"><div xmlns="http://www.w3.org/1999/xhtml" style="display: table-cell; white-space: nowrap; line-height: 1.5; max-width: 200px; text-align: center;"><span class="nodeLabel"><p>docio.js<br />readDoc: YAML, JSON, CSV</p></span></div></foreignObject></g></g><g class="node default" id="my-svg-flowchart-schema-5" data-look="classic" transform="translate(1207.2890625, 736.2058792114258)"><rect class="basic label-container" style="" x="-125.109375" y="-34.5" width="250.21875" height="69"/><g class="label" style="" transform="translate(-95.109375, -19.5)"><rect/><foreignObject width="190.21875" height="39"><div xmlns="http://www.w3.org/1999/xhtml" style="display: table-cell; white-space: nowrap; line-height: 1.5; max-width: 200px; text-align: center;"><span class="nodeLabel"><p>schema.js + teams.js + roles.js<br />normalizeOrg: the org document</p></span></div></foreignObject></g></g><g class="node default" id="my-svg-flowchart-tree-7" data-look="classic" transform="translate(1072.87890625, 855.2058792114258)"><rect class="basic label-container" style="" x="-112.1171875" y="-34.5" width="224.234375" height="69"/><g class="label" style="" transform="translate(-82.1171875, -19.5)"><rect/><foreignObject width="164.234375" height="39"><div xmlns="http://www.w3.org/1999/xhtml" style="display: table-cell; white-space: nowrap; line-height: 1.5; max-width: 200px; text-align: center;"><span class="nodeLabel"><p>tree.js<br />indexOrg, focusView, search</p></span></div></foreignObject></g></g><g class="node default" id="my-svg-flowchart-handoff-9" data-look="classic" transform="translate(1198.05859375, 974.2058792114258)"><rect class="basic label-container" style="" x="-120.8984375" y="-34.5" width="241.796875" height="69"/><g class="label" style="" transform="translate(-90.8984375, -19.5)"><rect/><foreignObject width="181.796875" height="39"><div xmlns="http://www.w3.org/1999/xhtml" style="display: table-cell; white-space: nowrap; line-height: 1.5; max-width: 200px; text-align: center;"><span class="nodeLabel"><p>handoff.js<br />Floorplan + Reparto documents</p></span></div></foreignObject></g></g><g class="node default" id="my-svg-flowchart-formats-11" data-look="classic" transform="translate(1325.17578125, 855.2058792114258)"><rect class="basic label-container" style="" x="-90.1796875" y="-34.5" width="180.359375" height="69"/><g class="label" style="" transform="translate(-60.1796875, -19.5)"><rect/><foreignObject width="120.359375" height="39"><div xmlns="http://www.w3.org/1999/xhtml" style="display: table-cell; white-space: nowrap; line-height: 1.5; max-width: 200px; text-align: center;"><span class="nodeLabel"><p>formats.js<br />CSV, Mermaid, vCard</p></span></div></foreignObject></g></g><g class="node default" id="my-svg-flowchart-app-13" data-look="classic" transform="translate(155.76953125, 271)"><rect class="basic label-container" style="" x="-103.9765625" y="-34.5" width="207.953125" height="69"/><g class="label" style="" transform="translate(-73.9765625, -19.5)"><rect/><foreignObject width="147.953125" height="39"><div xmlns="http://www.w3.org/1999/xhtml" style="display: table-cell; white-space: nowrap; line-height: 1.5; max-width: 200px; text-align: center;"><span class="nodeLabel"><p>app.js + boot.js<br />first document, first card</p></span></div></foreignObject></g></g><g class="node default" id="my-svg-flowchart-state-15" data-look="classic" transform="translate(197.33984375, 421.8529396057129)"><rect class="basic label-container" style="" x="-112.734375" y="-34.5" width="225.46875" height="69"/><g class="label" style="" transform="translate(-82.734375, -19.5)"><rect/><foreignObject width="165.46875" height="39"><div xmlns="http://www.w3.org/1999/xhtml" style="display: table-cell; white-space: nowrap; line-height: 1.5; max-width: 200px; text-align: center;"><span class="nodeLabel"><p>state.js + me.js<br />document text, who you are</p></span></div></foreignObject></g></g><g class="node default" id="my-svg-flowchart-nav-17" data-look="classic" transform="translate(406.8515625, 855.2058792114258)"><rect class="basic label-container" style="" x="-121.5625" y="-34.5" width="243.125" height="69"/><g class="label" style="" transform="translate(-91.5625, -19.5)"><rect/><foreignObject width="183.125" height="39"><div xmlns="http://www.w3.org/1999/xhtml" style="display: table-cell; white-space: nowrap; line-height: 1.5; max-width: 200px; text-align: center;"><span class="nodeLabel"><p>nav.js<br />go(id): view transitions, history</p></span></div></foreignObject></g></g><g class="node default" id="my-svg-flowchart-chart-19" data-look="classic" transform="translate(148.0390625, 974.2058792114258)"><rect class="basic label-container" style="" x="-105.0390625" y="-34.5" width="210.078125" height="69"/><g class="label" style="" transform="translate(-75.0390625, -19.5)"><rect/><foreignObject width="150.078125" height="39"><div xmlns="http://www.w3.org/1999/xhtml" style="display: table-cell; white-space: nowrap; line-height: 1.5; max-width: 200px; text-align: center;"><span class="nodeLabel"><p>render-chart.js + wires.js<br />chain, lead, row, columns</p></span></div></foreignObject></g></g><g class="node default" id="my-svg-flowchart-overview-21" data-look="classic" transform="translate(406.8515625, 974.2058792114258)"><rect class="basic label-container" style="" x="-103.7734375" y="-34.5" width="207.546875" height="69"/><g class="label" style="" transform="translate(-73.7734375, -19.5)"><rect/><foreignObject width="147.546875" height="39"><div xmlns="http://www.w3.org/1999/xhtml" style="display: table-cell; white-space: nowrap; line-height: 1.5; max-width: 200px; text-align: center;"><span class="nodeLabel"><p>overview.js<br />rings and division wedges</p></span></div></foreignObject></g></g><g class="node default" id="my-svg-flowchart-panel-23" data-look="classic" transform="translate(644.046875, 974.2058792114258)"><rect class="basic label-container" style="" x="-83.421875" y="-34.5" width="166.84375" height="69"/><g class="label" style="" transform="translate(-53.421875, -19.5)"><rect/><foreignObject width="106.84375" height="39"><div xmlns="http://www.w3.org/1999/xhtml" style="display: table-cell; white-space: nowrap; line-height: 1.5; max-width: 200px; text-align: center;"><span class="nodeLabel"><p>panel.js<br />profile and details</p></span></div></foreignObject></g></g><g class="node default" id="my-svg-flowchart-events-24" data-look="classic" transform="translate(531.72265625, 736.2058792114258)"><rect class="basic label-container" style="" x="-130" y="-34.5" width="260" height="69"/><g class="label" style="" transform="translate(-100, -19.5)"><rect/><foreignObject width="200" height="39"><div xmlns="http://www.w3.org/1999/xhtml" style="display: table; white-space: break-spaces; line-height: 1.5; max-width: 200px; text-align: center; width: 200px;"><span class="nodeLabel"><p>events.js + search.js + editor.js + actions.js</p></span></div></foreignObject></g></g><g class="node default" id="my-svg-flowchart-Storage-27" data-look="classic" transform="translate(840.8671875, 617.2058792114258)"><path d="M0,10.245296938399115 a43.3984375,10.245296938399115 0,0,0 86.796875,0 a43.3984375,10.245296938399115 0,0,0 -86.796875,0 l0,44.745296938399115 a43.3984375,10.245296938399115 0,0,0 86.796875,0 l0,-44.745296938399115" class="basic label-container outer-path" style="" transform="translate(-43.3984375, -32.61794540759867)"/><g class="label" style="" transform="translate(-35.8984375, 0.25)"><rect/><foreignObject width="71.796875" height="19.5"><div xmlns="http://www.w3.org/1999/xhtml" style="display: table-cell; white-space: nowrap; line-height: 1.5; max-width: 200px; text-align: center;"><span class="nodeLabel"><p>localStorage</p></span></div></foreignObject></g></g><g class="node default" id="my-svg-flowchart-Auth-34" data-look="classic" transform="translate(876.5234375, 271)"><rect class="basic label-container" style="" x="-79.0546875" y="-34.5" width="158.109375" height="69"/><g class="label" style="" transform="translate(-49.0546875, -19.5)"><rect/><foreignObject width="98.109375" height="39"><div xmlns="http://www.w3.org/1999/xhtml" style="display: table-cell; white-space: nowrap; line-height: 1.5; max-width: 200px; text-align: center;"><span class="nodeLabel"><p>Neorgon Auth Kit<br />account email</p></span></div></foreignObject></g></g><g class="node default" id="my-svg-flowchart-Floorplan-37" data-look="classic" transform="translate(1078.75390625, 1137.7058792114258)"><rect class="basic label-container" style="" x="-96.6171875" y="-34.5" width="193.234375" height="69"/><g class="label" style="" transform="translate(-66.6171875, -19.5)"><rect/><foreignObject width="133.234375" height="39"><div xmlns="http://www.w3.org/1999/xhtml" style="display: table-cell; white-space: nowrap; line-height: 1.5; max-width: 200px; text-align: center;"><span class="nodeLabel"><p>floorplan.neorgon.com<br />rooms</p></span></div></foreignObject></g></g><g class="node default" id="my-svg-flowchart-Reparto-39" data-look="classic" transform="translate(1317.36328125, 1137.7058792114258)"><rect class="basic label-container" style="" x="-91.9921875" y="-34.5" width="183.984375" height="69"/><g class="label" style="" transform="translate(-61.9921875, -19.5)"><rect/><foreignObject width="123.984375" height="39"><div xmlns="http://www.w3.org/1999/xhtml" style="display: table-cell; white-space: nowrap; line-height: 1.5; max-width: 200px; text-align: center;"><span class="nodeLabel"><p>reparto.neorgon.com<br />sprint capacity</p></span></div></foreignObject></g></g></g></g></g><defs><filter id="my-svg-drop-shadow" height="130%" width="130%"><feDropShadow dx="4" dy="4" stdDeviation="0" flood-opacity="0.06" flood-color="#000000"/></filter></defs><defs><filter id="my-svg-drop-shadow-small" height="150%" width="150%"><feDropShadow dx="2" dy="2" stdDeviation="0" flood-opacity="0.06" flood-color="#000000"/></filter></defs><linearGradient id="my-svg-gradient" gradientUnits="objectBoundingBox" x1="0%" y1="0%" x2="100%" y2="0%"><stop offset="0%" stop-color="#0063e5" stop-opacity="1"/><stop offset="100%" stop-color="hsl(217.2413793103, 0%, 7.4509803922%)" stop-opacity="1"/></linearGradient></svg>